<svg xmlns="http://www.w3.org/2000/svg" viewBox="0 0 180 180" role="img" aria-label="office worker avatar">
  <defs>
    <radialGradient id="avatar-bg" cx="50%" cy="35%" r="70%">
      <stop offset="0" stop-color="#eaf9dc"/>
      <stop offset=".55" stop-color="#8fd9b4"/>
      <stop offset="1" stop-color="#315f50"/>
    </radialGradient>
    <linearGradient id="shirt" x1="0" x2="1" y1="0" y2="1">
      <stop offset="0" stop-color="#f8f1d7"/>
      <stop offset=".54" stop-color="#cfe7dc"/>
      <stop offset="1" stop-color="#6aa38e"/>
    </linearGradient>
    <linearGradient id="hair" x1="0" x2="1" y1="0" y2="1">
      <stop offset="0" stop-color="#394b4a"/>
      <stop offset="1" stop-color="#142625"/>
    </linearGradient>
  </defs>
  <circle cx="90" cy="90" r="86" fill="url(#avatar-bg)"/>
  <path d="M24 143c11-32 34-48 67-48 34 0 57 16 68 48-16 20-39 31-68 31-28 0-51-11-67-31Z" fill="#123432" opacity=".32"/>
  <path d="M48 154c8-33 22-50 42-50s35 17 43 50c-11 10-25 15-43 15s-32-5-42-15Z" fill="url(#shirt)" stroke="#203b38" stroke-width="6" stroke-linejoin="round"/>
  <path d="M72 110l18 20 18-20v-18H72Z" fill="#eabf9d" stroke="#203b38" stroke-width="5" stroke-linejoin="round"/>
  <path d="M62 66c-4-29 15-50 43-45 24 4 38 22 36 50-2 32-18 53-42 57-25 4-42-19-37-62Z" fill="#f0c6a4" stroke="#203b38" stroke-width="6"/>
  <path d="M58 73c-3-27 12-51 38-55 26-3 48 13 51 39-32-2-56-11-72-26-7 8-12 22-17 42Z" fill="url(#hair)"/>
  <path d="M68 72c8-9 18-14 30-14 17 0 30 7 41 21" fill="none" stroke="#203b38" stroke-width="6" stroke-linecap="round"/>
  <path d="M67 81h26M108 81h27" stroke="#203b38" stroke-width="5" stroke-linecap="round"/>
  <circle cx="81" cy="86" r="5" fill="#162624"/>
  <circle cx="119" cy="86" r="5" fill="#162624"/>
  <path d="M94 104c9 6 18 6 27 0" fill="none" stroke="#9b5142" stroke-width="5" stroke-linecap="round"/>
  <circle cx="60" cy="97" r="8" fill="#df6e68" opacity=".38"/>
  <circle cx="139" cy="96" r="8" fill="#df6e68" opacity=".38"/>
  <path d="M51 83c-8 0-14 8-13 18 1 11 7 18 18 20" fill="none" stroke="#f4c86a" stroke-width="8" stroke-linecap="round"/>
  <path d="M145 80c9 1 15 10 13 21-2 10-8 17-18 19" fill="none" stroke="#f4c86a" stroke-width="8" stroke-linecap="round"/>
  <path d="M61 119c-8 7-10 16-7 27M128 120c8 7 10 16 7 27" fill="none" stroke="#315f50" stroke-width="5" stroke-linecap="round"/>
  <path d="M83 133h15" stroke="#f07f35" stroke-width="6" stroke-linecap="round"/>
</svg>
